<svg xmlns="http://www.w3.org/2000/svg" xmlns:xlink="http://www.w3.org/1999/xlink" width="23" height="20" viewBox="0 0 23 20"><defs><path id="a" d="M326.54 653.07a6.5 6.5 0 0 0-6.47-6.07c-2.09 0-4.1 1-5.35 2.63l-.09-.04a1.6 1.6 0 0 0-.23-.1l-.13-.05-.24-.07-.13-.03a2.94 2.94 0 0 0-.26-.05l-.12-.02-.39-.02a3.42 3.42 0 0 0-3.45 3.38l.01.14a5.17 5.17 0 0 0-2.69 4.41 4.88 4.88 0 0 0 4.92 4.82h1.98c.21 0 .38-.17.38-.37a.38.38 0 0 0-.38-.38h-1.98a4.11 4.11 0 0 1-4.15-4.07 4.44 4.44 0 0 1 2.46-3.84l.22-.1V653l.01-.14v-.07l-.01-.07v-.09a2.66 2.66 0 0 1 3.79-2.39l.08.03.27.15a2.61 2.61 0 0 1 1.23 2.21c0 .2.17.37.38.37s.38-.17.38-.37c0-1.04-.47-1.96-1.22-2.58a6.11 6.11 0 0 1 4.71-2.3c2.96 0 5.43 2.3 5.69 5.21a7.79 7.79 0 0 0-1.57.04.39.39 0 0 0-.32.43c.03.19.19.32.38.32h.06a6.8 6.8 0 0 1 1.79 0 3.86 3.86 0 0 1 3.13 3.74 3.8 3.8 0 0 1-3.84 3.76h-1.52a.38.38 0 0 0-.39.38c0 .2.17.37.39.37h1.52a4.57 4.57 0 0 0 4.61-4.51c0-2.06-1.47-3.9-3.46-4.42z"/><path id="b" d="M322.34 663.12l-2.45 2.51v-8.23a.4.4 0 0 0-.39-.4.4.4 0 0 0-.39.4v8.23l-2.45-2.51a.38.38 0 0 0-.55 0 .4.4 0 0 0 0 .56l3.11 3.2a.38.38 0 0 0 .28.12.38.38 0 0 0 .28-.12l3.11-3.2a.4.4 0 0 0 0-.56.38.38 0 0 0-.55 0z"/></defs><use fill="#fff" xlink:href="#a" transform="translate(-307 -647)"/><use fill="#fff" xlink:href="#b" transform="translate(-307 -647)"/></svg>