<svg xmlns="http://www.w3.org/2000/svg" xmlns:xlink="http://www.w3.org/1999/xlink" width="19" height="16" viewBox="0 0 19 16"><defs><path id="a" d="M786.93 1380.49l.03.01h-12.71l3.99-4.07c.2-.19.31-.46.31-.74 0-.29-.11-.55-.31-.75l-.62-.63a1 1 0 0 0-.73-.31c-.28 0-.54.11-.74.31l-6.85 6.94a1.1 1.1 0 0 0 0 1.5l6.85 6.94c.2.2.46.31.74.31a1 1 0 0 0 .73-.31l.62-.63c.2-.2.31-.46.31-.74 0-.28-.11-.53-.31-.73l-4.04-4.09h12.75c.57 0 1.05-.5 1.05-1.08v-.89c0-.58-.5-1.04-1.07-1.04z"/></defs><use fill="#fff" xlink:href="#a" transform="translate(-769 -1374)"/></svg>