<svg xmlns="http://www.w3.org/2000/svg" xmlns:xlink="http://www.w3.org/1999/xlink" width="31" height="20" viewBox="0 0 31 20"><defs><path id="b" d="M64.19 46.42A8.57 8.57 0 0 0 55.68 38a8.97 8.97 0 0 0-7.3 3.86 4.33 4.33 0 0 0-2.36-.7 4.24 4.24 0 0 0-4.28 4.21l.01.24-.01.28A6.74 6.74 0 0 0 38 51.77 6.3 6.3 0 0 0 44.33 58h13.1l.22-.01.22.01h5.24A5.86 5.86 0 0 0 69 52.2a5.93 5.93 0 0 0-4.81-5.78z"/><linearGradient id="a" x1="40.34" x2="68.2" y1="38.81" y2="56.87" gradientUnits="userSpaceOnUse"><stop offset="0" stop-color="#4c63d1"/><stop offset=".74" stop-color="#593ccd"/><stop offset="1" stop-color="#5d2fcc"/></linearGradient></defs><use fill="url(#a)" xlink:href="#b" transform="translate(-38 -38)"/></svg>